# xmcd CD database file
#
# Track frame offsets:
#	150
#	24498
#	48996
#	91944
#	106842
#	141990
#	160263
#	190761
#	215784
#	237732
#	258630
#	277803
#	319776
#	342324
#
# Disc length: 4746 seconds
#
# Revision: 2
# Processed by: cddbd v1.5.2PL0 Copyright (c) Steve Scherf et al.
# Submitted via: CDex 1.51
#
DISCID=cd12880e
DTITLE=Various Artist - Vol. III CALIBRATED MUSIC Finest Jazz in Scandinavia 2008
DYEAR=2009
DGENRE=Jazz
TTITLE0=Strom - Ay Carumba
TTITLE1=Sidsel Storm - Let's Move On
TTITLE2=Thomas Hass Quartet - All Blues
TTITLE3=Six City Stompers - Tonight
TTITLE4=Ed Epstein and Erling Kroner - I'm Trying, I'm dying
TTITLE5=Fredrik Mellquist Trio presenterar Ester Arman - Trevligt
TTITLE6=Marius Neset - II
TTITLE7=Fini Hostrup - Check-out
TTITLE8=Helle Henning - Klokken Ti Praecis
TTITLE9=Maj-Britt Kramer Trio - Ach Gott, erhör mein Seufzen
TTITLE10=Jakob Davidsen Mangfoldighed - Mahatma
TTITLE11=La Mariposa Project - Strada Anfosa - Eknmo
TTITLE12=Blood Sweat Drum'n Bass - Goretex Weather Report
TTITLE13=Strange Party Orchestra - Travellers Tale
EXTD=YEAR: 2009
EXTT0=
EXTT1=
EXTT2=
EXTT3=
EXTT4=
EXTT5=
EXTT6=
EXTT7=
EXTT8=
EXTT9=
EXTT10=
EXTT11=
EXTT12=
EXTT13=
PLAYORDER=
